<?xml version="1.0" encoding="UTF-8"?>
<svg width="22px" height="29px" viewBox="0 0 22 29" version="1.1" xmlns="http://www.w3.org/2000/svg" xmlns:xlink="http://www.w3.org/1999/xlink">
    <!-- Generator: Sketch 63.1 (92452) - https://sketch.com -->
    <title>Group 6</title>
    <desc>Created with Sketch.</desc>
    <g id="Page-2" stroke="none" stroke-width="1" fill="none" fill-rule="evenodd">
        <g id="Group-7" transform="translate(-30.000000, -25.000000)" fill="#FFFFFF" fill-rule="nonzero">
            <g id="Group-6" transform="translate(38.842262, 38.890631) rotate(-25.000000) translate(-38.842262, -38.890631) translate(28.842262, 26.390631)">
                <path d="M17.507646,12.179232 L16.4561723,12.179232 L15.5650585,10.3970044 C15.3174141,9.9007007 14.9012904,9.54445816 14.4131062,9.33639628 L15.081949,6.08961601 L15.2230251,6.08961601 C16.0623772,6.08961601 16.7454291,5.40656408 16.7454291,4.56721201 L16.7454291,1.522404 C16.7454291,0.683051929 16.0623772,2.82860583e-13 15.2230251,2.82860583e-13 L7.61100508,2.82860583e-13 C6.771653,2.82860583e-13 6.08860108,0.683051929 6.08860108,1.522404 L6.08860108,4.56721201 C6.08860108,5.40656408 6.771653,6.08961601 7.61100508,6.08961601 L7.75208118,6.08961601 L8.42092401,9.33741122 C7.93476966,9.5454731 7.5186459,9.90171563 7.27100152,10.3970044 L6.38090264,12.179232 L4.56619707,12.179232 L4.56619707,11.41803 C4.56619707,10.9978465 4.22517858,10.656828 3.80499507,10.656828 C3.38481157,10.656828 3.04379307,10.9978465 3.04379307,11.41803 L3.04379307,12.179232 L2.283606,12.179232 C1.02407043,12.179232 6.95558811e-15,13.2043174 6.95558811e-15,14.462838 L6.95558811e-15,22.074858 C6.95558811e-15,23.3333787 1.02407043,24.358464 2.283606,24.358464 L17.507646,24.358464 C18.7661667,24.358464 19.791252,23.3333787 19.791252,22.074858 L19.791252,14.462838 C19.791252,13.2043174 18.7661667,12.179232 17.507646,12.179232 Z M7.60999014,1.522404 L7.61100508,0.761202001 L7.60999014,1.522404 C7.61100508,1.522404 7.61100508,1.522404 7.60999014,1.522404 Z M7.61202001,1.522404 L15.22404,1.522404 L15.22404,4.56721201 L14.462838,4.56721201 L8.37322202,4.56721201 L7.61202001,4.56721201 L7.61202001,1.522404 Z M13.528082,6.08961601 L12.9008515,9.13442402 L9.93317865,9.13442402 L9.3059482,6.08961601 L13.528082,6.08961601 Z M18.268848,22.074858 C18.268848,22.4940266 17.9268146,22.83606 17.507646,22.83606 L2.283606,22.83606 C1.8634225,22.83606 1.522404,22.4940266 1.522404,22.074858 L1.522404,14.462838 C1.522404,14.0436695 1.8634225,13.701636 2.283606,13.701636 L6.85081801,13.701636 C7.13905984,13.701636 7.4029432,13.5392463 7.53184007,13.2804376 L8.63304563,11.0780265 C8.76295744,10.8182028 9.02278106,10.656828 9.31305275,10.656828 L13.5209774,10.656828 L13.5219924,10.656828 C13.8122641,10.656828 14.0731026,10.8182028 14.2030144,11.0780265 L15.30422,13.2804376 C15.4331168,13.5392463 15.6970002,13.701636 15.985242,13.701636 L17.507646,13.701636 C17.9268146,13.701636 18.268848,14.0436695 18.268848,14.462838 L18.268848,22.074858 Z" id="Shape"></path>
                <path d="M4.18661101,15.22404 C4.18661101,15.22404 4.18559607,15.22404 4.18661101,15.22404 C3.55532081,15.225055 3.04379307,15.7365827 3.0448065,16.366858 C3.04582294,16.9971332 3.55735069,17.508661 4.18762594,17.5076475 C4.8179012,17.5066311 5.32841401,16.9961183 5.32841401,16.365843 C5.32841401,15.7355678 4.81688627,15.22404 4.18661101,15.22404 Z" id="Path"></path>
                <path d="M11.4170151,13.701636 C9.31812743,13.701636 7.61100508,15.4097733 7.61100508,17.507646 C7.61100508,19.6055187 9.31812743,21.313656 11.4170151,21.313656 C13.5148878,21.313656 15.2230251,19.6055187 15.2230251,17.507646 C15.2230251,15.4097733 13.5148878,13.701636 11.4170151,13.701636 Z M11.4170151,19.791252 C10.1574795,19.791252 9.13340908,18.7661667 9.13340908,17.507646 C9.13340908,16.2491254 10.1574795,15.22404 11.4170151,15.22404 C12.6755357,15.22404 13.7006211,16.2491254 13.7006211,17.507646 C13.7006211,18.7661667 12.6755357,19.791252 11.4170151,19.791252 Z" id="Shape"></path>
            </g>
        </g>
    </g>
</svg>