<?xml version="1.0" encoding="UTF-8"?>
<svg width="78px" height="78px" viewBox="0 0 78 78" version="1.1" xmlns="http://www.w3.org/2000/svg" xmlns:xlink="http://www.w3.org/1999/xlink">
    <!-- Generator: Sketch 63.1 (92452) - https://sketch.com -->
    <title>Group 82</title>
    <desc>Created with Sketch.</desc>
    <defs>
        <polygon id="path-1" points="0 0.293607111 8.650784 0.293607111 8.650784 4.15855262 0 4.15855262"></polygon>
    </defs>
    <g id="Page-2" stroke="none" stroke-width="1" fill="none" fill-rule="evenodd" opacity="0.699999988">
        <g id="Group-7">
            <g id="Group-5">
                <g id="Group-82">
                    <path d="M26.337216,4.959232 L25.259136,5.419712 L24.724096,4.168832 C24.590016,3.855232 24.360576,3.767552 24.036416,3.906432 C23.888896,3.969152 23.791616,4.056192 23.745216,4.165952 C23.698816,4.276352 23.700416,4.389312 23.749696,4.504512 L24.270656,5.723712 C24.333696,5.871232 24.414016,5.971392 24.511296,6.025152 C24.608896,6.078592 24.749376,6.108992 24.933376,6.115712 L25.595136,6.094592 C26.038656,6.085952 26.396096,6.147072 26.668096,6.278272 C26.939776,6.409472 27.162176,6.677632 27.335296,7.082752 L28.013056,8.667712 C28.210176,9.128832 28.222336,9.556672 28.050176,9.950912 C27.877376,10.344832 27.550016,10.645312 27.067136,10.851392 C26.578816,11.060032 26.139456,11.100352 25.748736,10.972672 C25.357696,10.844992 25.071616,10.568832 24.890496,10.145152 L24.207936,8.548032 L25.297856,8.082112 L25.946176,9.598592 C26.009536,9.746112 26.103936,9.850112 26.229696,9.910592 C26.355456,9.971072 26.498496,9.966592 26.659456,9.898112 C26.801536,9.837312 26.897536,9.740672 26.947456,9.608512 C26.997056,9.476352 26.992576,9.341632 26.934336,9.204992 L26.299456,7.720512 C26.174656,7.428352 25.919936,7.284992 25.535296,7.290752 L24.838976,7.331392 C24.439296,7.353152 24.112576,7.288192 23.858816,7.136832 C23.605376,6.984832 23.397696,6.719872 23.236096,6.341632 L22.668736,5.014272 C22.496576,4.612032 22.487296,4.220992 22.640576,3.841472 C22.793856,3.461952 23.128256,3.162112 23.643136,2.941952 C24.142016,2.728512 24.575616,2.684672 24.944576,2.808832 C25.313536,2.933632 25.583936,3.196992 25.756096,3.599232 L26.337216,4.959232 Z" id="Fill-1" fill="#FFFFFF"></path>
                    <polygon id="Fill-3" fill="#FFFFFF" points="30.697216 8.419232 32.175936 8.021472 32.444096 9.018592 29.816256 9.725152 27.617536 1.550112 30.228736 0.848032 30.495616 1.840672 29.033856 2.233952 29.702016 4.718432 31.041216 4.358112 31.303616 5.333792 29.964416 5.694112"></polygon>
                    <polygon id="Fill-5" fill="#FFFFFF" points="34.676128 7.611136 36.193568 7.406976 36.331168 8.430656 33.634208 8.792576 32.507168 0.402496 35.186848 0.042496 35.323488 1.061376 33.823328 1.262976 34.165728 3.812736 35.540448 3.628096 35.674848 4.629696 34.300448 4.814336"></polygon>
                    <path d="M42.731136,7.99456 C42.521856,8.41312 42.156096,8.59456 41.634176,8.53888 C41.266176,8.496 40.979776,8.32672 40.774976,8.0304 C40.570496,7.7344 40.493056,7.33952 40.542656,6.84608 L41.063616,1.67488 C41.123136,1.08576 41.318976,0.64736 41.651136,0.36 C41.983616,0.07232 42.432896,-0.04288 42.998656,0.0144 C43.544256,0.06912 43.947136,0.2512 44.207936,0.56064 C44.468416,0.86944 44.573696,1.27072 44.524096,1.76384 L44.345536,3.53568 L43.166016,3.41664 L43.336576,1.72352 C43.378176,1.30848 43.225216,1.08352 42.877056,1.04832 C42.723136,1.03296 42.589696,1.0768 42.476736,1.17952 C42.363776,1.28256 42.297856,1.42816 42.278656,1.61696 L41.748416,6.87968 C41.706496,7.29472 41.859776,7.51968 42.208256,7.55488 C42.361856,7.57024 42.496896,7.52672 42.612736,7.424 C42.728576,7.32128 42.794816,7.18752 42.811456,7.02208 L43.010176,5.05024 L42.457536,4.99424 L42.557696,3.99776 L44.281536,4.1712 L43.827136,8.68096 L42.873856,8.58496 L42.813696,8.00256 L42.731136,7.99456 Z" id="Fill-7" fill="#FFFFFF"></path>
                    <path d="M46.83504,6.312064 L47.852,6.572864 L48.28816,3.640384 L48.46768,2.218624 L48.3912,2.198784 L47.86416,3.531904 L46.83504,6.312064 Z M47.41392,9.513664 L47.6952,7.607744 L46.47888,7.277824 L45.79952,9.099584 L44.6168,8.796544 L47.86448,0.889664 L49.5848,1.330944 L48.60912,9.820224 L47.41392,9.513664 Z" id="Fill-9" fill="#FFFFFF"></path>
                    <polygon id="Fill-11" fill="#FFFFFF" points="50.949248 9.658944 52.303808 10.207104 51.916608 11.163904 49.459008 10.169984 52.633728 2.321984 53.736768 2.768384"></polygon>
                    <polygon id="Fill-13" fill="#FFFFFF" points="54.266144 11.24832 55.547424 11.95072 55.051424 12.856 52.726304 11.58176 56.795424 4.1584 57.839264 4.73024"></polygon>
                    <polygon id="Fill-15" fill="#FFFFFF" points="57.377536 13.21488 58.620096 14.1096 58.016576 14.94736 55.808576 13.35696 60.755776 6.48784 62.950016 8.06768 62.349056 8.90192 61.120576 8.01744 59.617216 10.1048 60.742656 10.91504 60.151936 11.73552 59.026496 10.92496"></polygon>
                    <path d="M62.673632,13.543616 L62.926432,13.785856 C63.246112,14.092736 63.574752,14.068416 63.911712,13.712576 L65.183712,12.386496 C65.518752,12.037056 65.527392,11.710016 65.209632,11.405056 L64.957152,11.162816 L62.673632,13.543616 Z M61.510752,18.162816 L60.655072,17.342016 L62.479392,14.757376 L61.967712,14.266816 L59.802592,16.524416 L58.943712,15.700736 L64.803552,9.590976 L66.050592,10.787456 C66.438112,11.158656 66.640352,11.549056 66.658592,11.958016 C66.676192,12.366976 66.494432,12.770816 66.112992,13.168576 L64.810592,14.526016 C64.439072,14.913536 64.024352,15.103616 63.566432,15.096896 L61.510752,18.162816 Z" id="Fill-17" fill="#FFFFFF"></path>
                    <polygon id="Fill-19" fill="#FFFFFF" points="66.840992 17.403296 67.864032 16.880096 70.296352 15.589856 71.105632 16.617696 65.417312 19.179296 63.513312 20.657696 62.780832 19.714336 64.705312 18.219616 68.577952 13.362656 69.389152 14.421856 67.544672 16.468896 66.784672 17.330656"></polygon>
                    <path d="M72.836288,25.964256 L72.366208,24.890016 L73.612608,24.344416 C73.925248,24.207776 74.010688,23.977376 73.869248,23.654176 C73.804928,23.507296 73.717248,23.410976 73.606848,23.365536 C73.496128,23.319776 73.383168,23.322336 73.268608,23.372576 L72.054208,23.904416 C71.907008,23.968736 71.807168,24.049696 71.754688,24.147616 C71.701888,24.245536 71.672768,24.386336 71.667328,24.570336 L71.694208,25.231776 C71.707008,25.675296 71.648768,26.033376 71.519808,26.306016 C71.390848,26.579296 71.124608,26.803936 70.721408,26.980576 L69.142208,27.671776 C68.682688,27.873056 68.255168,27.889056 67.859648,27.719776 C67.463808,27.550496 67.160768,27.225376 66.950208,26.744416 C66.737408,26.258336 66.693248,25.819296 66.817728,25.427296 C66.942528,25.035296 67.215808,24.746656 67.637888,24.562016 L69.229248,23.865696 L69.704448,24.951776 L68.193408,25.613216 C68.046528,25.677536 67.943168,25.772576 67.883968,25.898976 C67.824448,26.025056 67.829888,26.168736 67.900288,26.329056 C67.962368,26.470496 68.059328,26.565536 68.192128,26.614176 C68.324928,26.662816 68.459328,26.657376 68.595648,26.597536 L70.074688,25.950176 C70.365888,25.822816 70.507008,25.566816 70.497728,25.182496 L70.451008,24.486496 C70.425728,24.086816 70.487808,23.759456 70.637568,23.504416 C70.787008,23.250016 71.050048,23.039776 71.427008,22.874976 L72.749568,22.296096 C73.150208,22.120736 73.541248,22.107936 73.922048,22.258016 C74.302848,22.408096 74.605568,22.739616 74.829888,23.252576 C75.047808,23.749536 75.095808,24.183136 74.974208,24.553056 C74.852608,24.922976 74.591808,25.195936 74.190848,25.370976 L72.836288,25.964256 Z" id="Fill-21" fill="#FFFFFF"></path>
                    <polygon id="Fill-23" fill="#FFFFFF" points="69.414272 30.355808 69.824512 31.830688 68.829952 32.107808 68.100672 29.485728 76.256512 27.217248 76.980992 29.822368 75.990592 30.097568 75.585152 28.639648 73.106752 29.328608 73.478272 30.664928 72.504512 30.935648 72.132992 29.599648"></polygon>
                    <polygon id="Fill-25" fill="#FFFFFF" points="70.255968 34.322368 70.472928 35.837888 69.450848 35.984128 69.065248 33.290368 77.445408 32.090688 77.828768 34.767488 76.810848 34.913088 76.596128 33.414528 74.049568 33.779328 74.246368 35.152128 73.246048 35.295168 73.049248 33.922368"></polygon>
                    <path d="M69.94176,42.377984 C69.5216,42.172224 69.33664,41.808384 69.38784,41.285504 C69.42752,40.917504 69.59456,40.629504 69.88896,40.422464 C70.18304,40.214784 70.57728,40.134144 71.07104,40.179584 L76.24672,40.655744 C76.83616,40.709824 77.27616,40.902144 77.56672,41.231744 C77.85696,41.561664 77.976,42.009984 77.92416,42.576064 C77.87392,43.121984 77.69536,43.526784 77.38848,43.790144 C77.0816,44.053184 76.68128,44.161984 76.18752,44.116864 L74.4144,43.953664 L74.52288,42.772864 L76.2176,42.929024 C76.63296,42.967104 76.85664,42.811904 76.88864,42.463424 C76.90304,42.309184 76.85824,42.176384 76.75424,42.064384 C76.65024,41.952384 76.504,41.887744 76.3152,41.870144 L71.048,41.385664 C70.63264,41.347264 70.40896,41.502784 70.37696,41.851264 C70.36256,42.005184 70.40768,42.139584 70.51104,42.254464 C70.61472,42.369664 70.74944,42.434624 70.91488,42.449984 L72.88832,42.631424 L72.93952,42.078144 L73.93696,42.169984 L73.77824,43.895104 L69.26496,43.479744 L69.35264,42.525824 L69.9344,42.460864 L69.94176,42.377984 Z" id="Fill-27" fill="#FFFFFF"></path>
                    <path d="M71.658624,46.473632 L71.406464,47.493152 L74.342464,47.903712 L75.765824,48.071072 L75.785024,47.994592 L74.447744,47.479072 L71.658624,46.473632 Z M68.462144,47.080352 L70.370624,47.344992 L70.689984,46.126112 L68.862144,45.462112 L69.155264,44.277152 L77.089664,47.456352 L76.663104,49.180832 L68.165824,48.278112 L68.462144,47.080352 Z" id="Fill-29" fill="#FFFFFF"></path>
                    <polygon id="Fill-31" fill="#FFFFFF" points="68.345664 50.62048 67.809024 51.97952 66.848704 51.60064 67.822144 49.13408 75.696384 52.24288 75.259264 53.34976"></polygon>
                    <polygon id="Fill-33" fill="#FFFFFF" points="66.786144 53.947072 66.094624 55.234432 65.185184 54.745792 66.439584 52.410112 73.897504 56.416192 73.334304 57.464192"></polygon>
                    <polygon id="Fill-35" fill="#FFFFFF" points="64.84848 57.071744 63.96432 58.321664 63.12144 57.725824 64.69264 55.504064 71.60432 60.391744 70.04336 62.599104 69.204 62.005824 70.07792 60.769984 67.97744 59.284544 67.1768 60.416704 66.35184 59.833344 67.15248 58.700864"></polygon>
                    <path d="M64.565024,62.371424 L64.325024,62.626144 C64.020704,62.948704 64.047904,63.277024 64.406304,63.611104 L65.743584,64.871264 C66.095584,65.203744 66.422944,65.209504 66.725024,64.888864 L66.965024,64.634464 L64.565024,62.371424 Z M59.935904,61.247904 L60.749344,60.385504 L63.349344,62.187424 L63.835744,61.671584 L61.559584,59.525664 L62.375904,58.660064 L68.535584,64.467424 L67.349984,65.724704 C66.981984,66.115104 66.593184,66.321184 66.184544,66.342624 C65.775584,66.364064 65.370464,66.185504 64.969504,65.807264 L63.600544,64.516704 C63.210144,64.148704 63.016544,63.735584 63.019424,63.277344 L59.935904,61.247904 Z" id="Fill-37" fill="#FFFFFF"></path>
                    <polygon id="Fill-39" fill="#FFFFFF" points="60.74176 66.571136 61.2736 67.589696 62.58496 70.010496 61.56384 70.828736 58.9536 65.162816 57.45888 63.271296 58.39584 62.530816 59.9072 64.442816 64.79712 68.272896 63.74496 69.093696 61.68192 67.266816 60.81376 66.514176"></polygon>
                    <path d="M52.230656,72.64144 L53.300736,72.16208 L53.856896,73.40368 C53.996416,73.71504 54.227136,73.79856 54.549376,73.65424 C54.695616,73.58896 54.790976,73.50064 54.835776,73.3896 C54.880256,73.27824 54.877056,73.1656 54.825536,73.05104 L54.283776,71.84144 C54.217856,71.69488 54.136256,71.59568 54.037696,71.54416 C53.939456,71.49232 53.798336,71.46448 53.614336,71.46064 L52.952896,71.49296 C52.509696,71.5096 52.150976,71.45456 51.877056,71.32816 C51.603136,71.20144 51.375936,70.93712 51.196096,70.5352 L50.491136,68.96208 C50.286016,68.50416 50.266496,68.07664 50.431936,67.67984 C50.597696,67.28272 50.920256,66.97712 51.399296,66.7624 C51.883776,66.54512 52.322496,66.49744 52.715776,66.61872 C53.108736,66.73968 53.399296,67.0104 53.587776,67.4312 L54.297856,69.01616 L53.215936,69.50096 L52.541696,67.99568 C52.476096,67.84912 52.379776,67.74704 52.253056,67.68848 C52.126336,67.63056 51.982976,67.63696 51.823296,67.70864 C51.682176,67.77168 51.588096,67.86992 51.540416,68.00304 C51.493056,68.13616 51.499776,68.27056 51.560576,68.40656 L52.220736,69.87952 C52.350656,70.16976 52.607936,70.30864 52.991936,70.29648 L53.687616,70.24368 C54.086976,70.21488 54.414976,70.2744 54.670976,70.4216 C54.926976,70.56848 55.139136,70.83024 55.307456,71.2056 L55.897536,72.52304 C56.076736,72.9224 56.092736,73.31312 55.945856,73.6952 C55.798976,74.07728 55.470016,74.38256 54.958976,74.61168 C54.463936,74.83376 54.030976,74.88528 53.659776,74.7672 C53.288896,74.6488 53.014016,74.39024 52.835136,73.99088 L52.230656,72.64144 Z" id="Fill-41" fill="#FFFFFF"></path>
                    <polygon id="Fill-43" fill="#FFFFFF" points="47.819264 69.25424 46.347584 69.6776 46.062144 68.6856 48.677184 67.93296 51.018304 76.06832 48.419904 76.81616 48.135744 75.828 49.590464 75.40944 48.879104 72.93744 47.546304 73.3208 47.266624 72.3496 48.599424 71.96624"></polygon>
                    <polygon id="Fill-45" fill="#FFFFFF" points="43.853312 70.132064 42.339392 70.362144 42.184192 69.341344 44.874432 68.932384 46.146752 77.301984 43.473472 77.708384 43.319232 76.691744 44.815552 76.464224 44.428992 73.921184 43.058112 74.129504 42.906112 73.130144 44.277312 72.922144"></polygon>
                    <path d="M35.791456,69.886752 C35.993376,69.464672 36.355936,69.277152 36.878816,69.323232 C37.247456,69.360032 37.536736,69.524512 37.746336,69.817312 C37.956256,70.109792 38.040416,70.503392 37.999136,70.997472 L37.567136,76.176672 C37.517856,76.766752 37.329696,77.208672 37.002336,77.501792 C36.674976,77.794912 36.227616,77.917792 35.660896,77.870432 C35.114656,77.824992 34.708576,77.649952 34.442656,77.345312 C34.176736,77.040352 34.064736,76.640992 34.105696,76.146912 L34.253856,74.372832 L35.435296,74.471072 L35.293856,76.167072 C35.258976,76.582752 35.416096,76.805152 35.764896,76.834272 C35.919136,76.847072 36.051616,76.800992 36.162976,76.696352 C36.274016,76.591392 36.337696,76.444512 36.353056,76.255392 L36.793056,70.984672 C36.827616,70.568992 36.670816,70.346592 36.322016,70.317472 C36.167776,70.304672 36.033696,70.350432 35.919456,70.455072 C35.805536,70.560032 35.741536,70.694752 35.727776,70.860512 L35.562976,72.835552 L36.116896,72.881632 L36.033376,73.880032 L34.306976,73.736032 L34.683936,69.219232 L35.638496,69.298912 L35.708576,69.880032 L35.791456,69.886752 Z" id="Fill-47" fill="#FFFFFF"></path>
                    <path d="M31.716608,71.640192 L30.695168,71.396992 L30.310208,74.336512 L30.155328,75.761472 L30.232128,75.779712 L30.735808,74.437952 L31.716608,71.640192 Z M31.082048,68.448832 L30.834048,70.359872 L32.055808,70.668672 L32.703488,68.834752 L33.891008,69.117632 L30.781568,77.079552 L29.053568,76.668352 L29.882048,68.163392 L31.082048,68.448832 Z" id="Fill-49" fill="#FFFFFF"></path>
                    <polygon id="Fill-51" fill="#FFFFFF" points="27.542688 68.364256 26.178848 67.839776 26.549408 66.876256 29.023968 67.827616 25.985248 75.729376 24.874528 75.302176"></polygon>
                    <polygon id="Fill-53" fill="#FFFFFF" points="24.19504 66.829856 22.9016 66.149536 23.38256 65.235936 25.7288 66.470176 21.78704 73.962016 20.73392 73.408096"></polygon>
                    <polygon id="Fill-55" fill="#FFFFFF" points="21.057696 64.92176 19.800096 64.04848 20.388896 63.20016 22.624096 64.75248 17.795936 71.70608 15.575136 70.164 16.161376 69.31952 17.404576 70.18256 18.871776 68.06992 17.732576 67.27856 18.309216 66.44848 19.448416 67.23952"></polygon>
                    <path d="M15.75552,64.682688 L15.49888,64.444928 C15.17376,64.143488 14.84544,64.173568 14.51456,64.534848 L13.2656,65.882688 C12.93632,66.237568 12.93344,66.564928 13.25632,66.864128 L13.51328,67.102528 L15.75552,64.682688 Z M16.83904,60.044288 L17.7088,60.850048 L15.92896,63.465728 L16.44896,63.947328 L18.57504,61.652928 L19.448,62.462208 L13.69344,68.671168 L12.42592,67.496448 C12.03232,67.131648 11.82304,66.744768 11.7984,66.336128 C11.77376,65.927488 11.94848,65.520768 12.3232,65.116608 L13.60192,63.736768 C13.96672,63.342848 14.37824,63.145728 14.83616,63.144768 L16.83904,60.044288 Z" id="Fill-57" fill="#FFFFFF"></path>
                    <polygon id="Fill-59" fill="#FFFFFF" points="11.522848 60.895808 10.509088 61.436288 8.099168 62.768448 7.272608 61.754688 12.916128 59.095808 14.794208 57.584768 15.543008 58.515648 13.644128 60.043008 9.855968 64.965888 9.026208 63.920448 10.835488 61.842048 11.580448 60.967488"></polygon>
                    <path d="M5.38128,52.442048 L5.86992,53.507648 L4.63312,54.075008 C4.32304,54.217408 4.24144,54.448768 4.38864,54.769408 C4.45552,54.915328 4.5448,55.010048 4.65616,55.053568 C4.76752,55.097088 4.88016,55.092608 4.9944,55.040448 L6.1992,54.488128 C6.34512,54.421248 6.44336,54.338368 6.49424,54.239488 C6.54544,54.140928 6.572,53.999168 6.57424,53.815488 L6.53584,53.154368 C6.51536,52.711168 6.56752,52.352128 6.69136,52.076928 C6.81552,51.802048 7.07792,51.572608 7.47824,51.388928 L9.04496,50.670528 C9.50128,50.461568 9.92816,50.437888 10.32688,50.600128 C10.72528,50.762368 11.03376,51.082048 11.25264,51.559168 C11.47408,52.041728 11.52592,52.480128 11.40784,52.874368 C11.2904,53.268288 11.02192,53.561408 10.60304,53.753408 L9.02448,54.477248 L8.53008,53.399808 L10.02928,52.712128 C10.1752,52.645248 10.27664,52.548288 10.33392,52.421248 C10.39088,52.293568 10.3832,52.150528 10.31024,51.991488 C10.24592,51.851008 10.14704,51.757568 10.01328,51.711488 C9.87984,51.665088 9.74544,51.673088 9.61008,51.734848 L8.14256,52.408128 C7.85392,52.540608 7.71728,52.798528 7.73296,53.182848 L7.79184,53.877888 C7.82384,54.276928 7.76752,54.605568 7.62256,54.862848 C7.4776,55.120128 7.21808,55.334848 6.844,55.506048 L5.53168,56.107968 C5.13424,56.290048 4.74352,56.309888 4.36016,56.166528 C3.9768,56.022848 3.66832,55.696768 3.43472,55.187648 C3.2088,54.694528 3.15312,54.261888 3.268,53.889728 C3.3832,53.517888 3.63952,53.240768 4.03696,53.058368 L5.38128,52.442048 Z" id="Fill-61" fill="#FFFFFF"></path>
                    <polygon id="Fill-63" fill="#FFFFFF" points="8.726912 47.992992 8.290752 46.525152 9.280512 46.231072 10.055552 48.839712 1.940352 51.250272 1.170432 48.658592 2.156032 48.365792 2.587072 49.816672 5.052992 49.084192 4.658112 47.754912 5.626752 47.466912 6.021952 48.796512"></polygon>
                    <polygon id="Fill-65" fill="#FFFFFF" points="7.815808 44.039232 7.572608 42.527232 8.592128 42.363392 9.024128 45.050112 0.666048 46.394432 0.236608 43.725312 1.251648 43.561792 1.491968 45.056512 4.031808 44.647552 3.811648 43.278592 4.809408 43.117952 5.029568 44.487232"></polygon>
                    <g id="Group-69" transform="translate(0.000000, 34.040320)">
                        <mask id="mask-2" fill="white">
                            <use xlink:href="#path-1"></use>
                        </mask>
                        <g id="Clip-68"></g>
                        <path d="M7.992544,1.932992 C8.416224,2.131392 8.607264,2.492352 8.565024,3.015872 C8.531744,3.384512 8.369504,3.675072 8.078624,3.887232 C7.787744,4.099712 7.395104,4.187392 6.900704,4.150272 L1.717664,3.762112 C1.127264,3.717632 0.684064,3.533312 0.388064,3.208192 C0.092384,2.883392 -0.034336,2.437312 0.007904,1.870272 C0.048864,1.323392 0.220704,0.915712 0.523104,0.647232 C0.825504,0.379392 1.223904,0.263232 1.718304,0.300352 L3.493664,0.433152 L3.405344,1.615872 L1.708064,1.488512 C1.292384,1.457472 1.071264,1.616512 1.045024,1.965632 C1.033504,2.119552 1.080544,2.251712 1.186464,2.362112 C1.292384,2.472512 1.439584,2.534592 1.628704,2.548992 L6.903264,2.943872 C7.319264,2.975232 7.540384,2.816192 7.566304,2.467072 C7.578144,2.312832 7.531104,2.179392 7.425504,2.066112 C7.319584,1.952832 7.184224,1.890112 7.018464,1.877632 L5.041824,1.729472 L5.000544,2.283712 L4.001504,2.208832 L4.130784,0.481152 L8.650784,0.819712 L8.579104,1.775232 L7.998944,1.850112 L7.992544,1.932992 Z" id="Fill-67" fill="#FFFFFF" mask="url(#mask-2)"></path>
                    </g>
                    <path d="M6.203648,31.919552 L6.437888,30.896192 L3.495168,30.537152 L2.068928,30.394752 L2.051328,30.471552 L3.397568,30.963392 L6.203648,31.919552 Z M9.389248,31.257152 L7.476288,31.025792 L7.178048,32.250112 L9.017408,32.882112 L8.745088,34.071872 L0.756288,31.032512 L1.152448,29.300672 L9.664128,30.054592 L9.389248,31.257152 Z" id="Fill-70" fill="#FFFFFF"></path>
                    <polygon id="Fill-72" fill="#FFFFFF" points="9.445824 27.707072 9.958784 26.339072 10.925824 26.701312 9.994944 29.183872 2.067904 26.212032 2.485824 25.097792"></polygon>
                    <polygon id="Fill-74" fill="#FFFFFF" points="10.947392 24.355168 11.616512 23.055968 12.534272 23.528928 11.320512 25.885728 3.794432 22.009568 4.339392 20.951328"></polygon>
                    <polygon id="Fill-76" fill="#FFFFFF" points="12.829408 21.200192 13.691808 19.935232 14.544928 20.516352 13.012128 22.765312 6.016928 17.996992 7.539808 15.763072 8.389408 16.341952 7.536928 17.593152 9.662688 19.041792 10.443488 17.895872 11.278688 18.464832 10.497568 19.611072"></polygon>
                    <path d="M13.023168,15.895488 L13.258688,15.636608 C13.557248,15.308928 13.524608,14.981248 13.160448,14.653248 L11.802048,13.415808 C11.443968,13.089728 11.116608,13.089408 10.820288,13.415168 L10.584448,13.674048 L13.023168,15.895488 Z M17.670848,16.939328 L16.872448,17.815808 L14.241728,16.058688 L13.764288,16.582208 L16.076928,18.688768 L15.275648,19.568768 L9.017088,13.867648 L10.180928,12.590208 C10.542528,12.193728 10.927488,11.981248 11.335808,11.952768 C11.744128,11.924288 12.152448,12.095808 12.559808,12.467008 L13.950528,13.733888 C14.347328,14.095168 14.548288,14.505088 14.553088,14.963008 L17.670848,16.939328 Z" id="Fill-78" fill="#FFFFFF"></path>
                    <polygon id="Fill-80" fill="#FFFFFF" points="16.772992 11.630496 16.223872 10.621216 14.871232 8.223136 15.877632 7.387616 18.585152 13.008096 20.112192 14.873376 19.187712 15.629856 17.644352 13.744096 12.688832 9.998176 13.726912 9.159776 15.820992 10.951136 16.701952 11.688736"></polygon>
                </g>
            </g>
        </g>
    </g>
</svg>